<svg xmlns="http://www.w3.org/2000/svg" width="20" height="14" viewBox="0 0 160.936 150.877">
  <g id="bot.1dd049133b708014e8e234b4349cb456" transform="translate(0 0)" opacity="0.197">
    <path id="Path_1412" data-name="Path 1412" d="M33.177,72.5a5.029,5.029,0,0,1,5.029-5.029H68.382a5.029,5.029,0,0,1,0,10.058H38.206A5.029,5.029,0,0,1,33.177,72.5ZM3,27.864c0-13.1,12.422-23.1,25.448-21.887a267.358,267.358,0,0,0,49.689,0c13.026-1.217,25.448,8.791,25.448,21.887V39.5a9.385,9.385,0,0,1-7.695,9.4,252.679,252.679,0,0,1-42.6,3.48,253.766,253.766,0,0,1-42.6-3.48A9.385,9.385,0,0,1,3,39.5Zm45.686-8.318a2.515,2.515,0,0,0-2.183.684l-9.254,9.053q-9.441-.563-18.819-1.841a2.515,2.515,0,0,0-.684,4.979c5.532.764,12.392,1.5,20.318,1.941a2.515,2.515,0,0,0,1.9-.714l7.584-7.4,8.52,17.2a2.515,2.515,0,0,0,4.064.624l9.375-9.757q9.7-.576,19.332-1.891a2.515,2.515,0,0,0-.684-4.979c-5.411.744-12.141,1.458-19.916,1.9a2.515,2.515,0,0,0-1.67.764L58.987,38,50.518,20.9A2.515,2.515,0,0,0,48.687,19.545Z" transform="translate(27.174 53.228)" fill="#FFFFFF"/>
    <path id="Path_1413" data-name="Path 1413" d="M85.5,18.769a10.058,10.058,0,1,0-10.058,0V30.176H55.322A45.263,45.263,0,0,0,10.058,75.439v5.029A10.058,10.058,0,0,0,0,90.527v20.117A10.058,10.058,0,0,0,10.058,120.7V130.76a20.117,20.117,0,0,0,20.117,20.117H130.76a20.117,20.117,0,0,0,20.117-20.117V120.7a10.058,10.058,0,0,0,10.058-10.058V90.527a10.058,10.058,0,0,0-10.058-10.058V75.439a45.263,45.263,0,0,0-45.263-45.263H85.5Zm55.322,56.669V130.76a10.058,10.058,0,0,1-10.058,10.058H30.175A10.058,10.058,0,0,1,20.117,130.76V75.439a35.2,35.2,0,0,1,35.2-35.2h50.292A35.2,35.2,0,0,1,140.819,75.439Z" transform="translate(0 0)" fill="#FFFFFF"/>
  </g>
</svg>