<svg id="bot.1dd049133b708014e8e234b4349cb456" xmlns="http://www.w3.org/2000/svg" width="16" height="15" viewBox="0 0 16 15">
  <path id="Path_1414" data-name="Path 1414" d="M6,12.5a.5.5,0,0,1,.5-.5h3a.5.5,0,0,1,0,1h-3A.5.5,0,0,1,6,12.5ZM3,8.062A2.29,2.29,0,0,1,5.53,5.886a26.58,26.58,0,0,0,4.94,0A2.29,2.29,0,0,1,13,8.062V9.219a.933.933,0,0,1-.765.935A25.121,25.121,0,0,1,8,10.5a25.229,25.229,0,0,1-4.235-.346A.933.933,0,0,1,3,9.219Zm4.542-.827a.25.25,0,0,0-.217.068l-.92.9q-.939-.056-1.871-.183a.25.25,0,0,0-.068.495c.55.076,1.232.149,2.02.193a.25.25,0,0,0,.189-.071L7.429,7.9l.847,1.71a.25.25,0,0,0,.4.062l.932-.97q.964-.057,1.922-.188a.25.25,0,0,0-.068-.495c-.538.074-1.207.145-1.98.189a.25.25,0,0,0-.166.076l-.754.785-.842-1.7a.25.25,0,0,0-.182-.135Z" fill="#FFFFFF "/>
  <path id="Path_1415" data-name="Path 1415" d="M8.5,1.866a1,1,0,1,0-1,0V3h-2A4.5,4.5,0,0,0,1,7.5V8A1,1,0,0,0,0,9v2a1,1,0,0,0,1,1v1a2,2,0,0,0,2,2H13a2,2,0,0,0,2-2V12a1,1,0,0,0,1-1V9a1,1,0,0,0-1-1V7.5A4.5,4.5,0,0,0,10.5,3h-2ZM14,7.5V13a1,1,0,0,1-1,1H3a1,1,0,0,1-1-1V7.5A3.5,3.5,0,0,1,5.5,4h5A3.5,3.5,0,0,1,14,7.5Z" fill="#FFFFFF "/>
</svg>
