<svg xmlns="http://www.w3.org/2000/svg" width="25.163" height="22.579" viewBox="0 0 25.163 22.579">
  <g id="layer1" transform="translate(0.5 0.5)" opacity="0.694">
    <path id="path2417" d="M13.559,28.025a25.045,25.045,0,0,0-2.866-2.508A51.061,51.061,0,0,1,5.85,21.628,9.148,9.148,0,0,1,2.5,14.341a5.573,5.573,0,0,1,.5-2.842A6.614,6.614,0,0,1,5.987,8.335a5.061,5.061,0,0,1,2.885-.678,4.424,4.424,0,0,1,2.866.692A5.786,5.786,0,0,1,14.3,11.267l.15.588.37-.809c2.089-4.574,8.76-4.506,11.081.114a9.9,9.9,0,0,1,.164,6.357c-.852,2.3-2.452,4.052-6.15,6.738a35.121,35.121,0,0,0-5.362,4.8C14.328,29.489,14.539,29.123,13.559,28.025Z" transform="translate(-2.505 -7.655)" fill="red" stroke="red" stroke-width="1"/>
  </g>
</svg>
