<svg xmlns="http://www.w3.org/2000/svg" width="120" height="44" viewBox="0 0 160 44">
  <g id="Group_3342" data-name="Group 3342" transform="translate(-39.499 -20)">
    <g id="Component_29_45" data-name="Component 29 – 45" transform="translate(39.499 20)">
      <g id="Group_2803" data-name="Group 2803" transform="translate(-19.999 -20)">
        <g id="Group_2361" data-name="Group 2361" transform="translate(18.838 20)">
          <g id="Group_2022" data-name="Group 2022" transform="translate(1.162 0)">
            <g id="Group_155" data-name="Group 155" transform="translate(58.821 6.576)">
              <g id="Group_154" data-name="Group 154">
                <g id="Group_152" data-name="Group 152" transform="translate(0.125 10.512)">
                  <path id="Path_447" data-name="Path 447" d="M86.1,48.01V28.8H97.613v1.251H89.792V37.5h7.383v1.251H89.792v8.072h7.947v1.251H86.1Z" transform="translate(-86.1 -28.237)" fill="#fff"/>
                  <path id="Path_448" data-name="Path 448" d="M112.4,28.8h6.32c7.008,0,10.324,4.943,10.324,9.949,0,6.132-4,9.261-9.636,9.261H112.4Zm3.629,17.958h2.253c5.882,0,7.071-4.192,7.071-7.947,0-4.818-2.253-8.76-6.883-8.76h-2.44Z" transform="translate(-95.944 -28.237)" fill="#fff"/>
                  <path id="Path_449" data-name="Path 449" d="M146.3,48.01V28.8h3.692V48.01Z" transform="translate(-108.632 -28.237)" fill="#fff"/>
                  <path id="Path_450" data-name="Path 450" d="M161.927,44.231a4.318,4.318,0,0,0,4,2.44,3.456,3.456,0,0,0,3.5-3.316c0-5.569-9.135-2.941-9.135-9.824,0-3.066,2.628-5.631,6.257-5.631a6.661,6.661,0,0,1,5.882,3.441l-1.251.813a4.25,4.25,0,0,0-4-2.753,3.138,3.138,0,0,0-3.191,3.379c0,4.505,9.135,2.628,9.135,9.574,0,3.5-3.129,5.882-6.382,5.882-2.628,0-4.755-.751-6.132-3Z" transform="translate(-113.872 -27.9)" fill="#fff"/>
                  <path id="Path_451" data-name="Path 451" d="M195.636,27.9c5.631,0,9.636,4.505,9.636,10.137,0,5.694-4,10.137-9.636,10.137S186,43.668,186,38.037,190,27.9,195.636,27.9Zm0,19.084c4.693,0,5.757-5.193,5.757-8.885,0-3.754-1.064-8.885-5.757-8.885s-5.694,5.193-5.694,8.885S190.943,46.984,195.636,46.984Z" transform="translate(-123.491 -27.9)" fill="#fff"/>
                  <path id="Path_452" data-name="Path 452" d="M223.5,48.01V28.8h3.254l10.2,13.2h.063V28.8h1.564V48.01h-1.627l-11.826-15.33h-.063V48.01Z" transform="translate(-137.526 -28.237)" fill="#fff"/>
                </g>
                <g id="Group_153" data-name="Group 153">
                  <path id="Path_453" data-name="Path 453" d="M86.463,16.556a1.459,1.459,0,0,0,1.314.813A1.108,1.108,0,0,0,88.9,16.306c0-1.815-3-.939-3-3.191A1.923,1.923,0,0,1,87.965,11.3a2.21,2.21,0,0,1,1.94,1.126l-.438.25a1.383,1.383,0,0,0-1.314-.876,1.07,1.07,0,0,0-1.064,1.126c0,1.5,3,.876,3,3.129A2.017,2.017,0,0,1,88.027,18a2.088,2.088,0,0,1-2-1Z" transform="translate(-85.9 -11.175)" fill="#fff"/>
                  <path id="Path_454" data-name="Path 454" d="M97.029,11.1a3.145,3.145,0,0,1,3.129,3.316,3.134,3.134,0,1,1-6.257,0A3.182,3.182,0,0,1,97.029,11.1Zm0,6.257c1.5,0,1.877-1.689,1.877-2.941s-.313-2.878-1.877-2.878c-1.5,0-1.877,1.689-1.877,2.878C95.151,15.668,95.527,17.357,97.029,17.357Z" transform="translate(-88.894 -11.1)" fill="#fff"/>
                  <path id="Path_455" data-name="Path 455" d="M106.851,11.4v4.505a1.316,1.316,0,0,0,1.377,1.314c.563,0,1.5-.188,1.5-1.251V11.4h.5v4.693c0,.813-.626,1.752-2.253,1.752-1.064,0-2.378-.375-2.378-2V11.4h1.251Z" transform="translate(-93.273 -11.212)" fill="#fff"/>
                  <path id="Path_456" data-name="Path 456" d="M115.951,17.72V11.838H114.7V11.4h3.754v.438H117.2V17.72Z" transform="translate(-96.679 -11.212)" fill="#fff"/>
                  <path id="Path_457" data-name="Path 457" d="M122.3,17.757V11.5h1.189v2.753h2.628V11.5h1.189v6.257h-1.189v-3h-2.628v3Z" transform="translate(-99.524 -11.25)" fill="#fff"/>
                  <path id="Path_458" data-name="Path 458" d="M132.8,17.757V11.5h3.754v.438h-2.565v2.44h2.44v.438h-2.44v2.628h2.628v.375H132.8Z" transform="translate(-103.454 -11.25)" fill="#fff"/>
                  <path id="Path_459" data-name="Path 459" d="M140.9,17.757V11.5h2.753a1.757,1.757,0,0,1,1.815,1.877c0,.939-.688,1.377-1.627,1.5l1.689,2.941h-1.314l-1.752-3.191h.063c1.064,0,1.752-.438,1.752-1.377,0-.688-.313-1.377-1.5-1.377h-.626V17.82H140.9Z" transform="translate(-106.485 -11.25)" fill="#fff"/>
                  <path id="Path_460" data-name="Path 460" d="M150,17.757V11.5h1.064l3.316,4.317h0V11.5h.5v6.257h-.5L150.5,12.751h0v5.006Z" transform="translate(-109.891 -11.25)" fill="#fff"/>
                  <path id="Path_461" data-name="Path 461" d="M170.981,12.7a2.374,2.374,0,0,0-1.815-1.126c-1.564,0-2.315,1.126-2.315,2.941,0,1.439.751,2.816,2.19,2.816a2.35,2.35,0,0,0,2.127-1.377l.438.188a2.845,2.845,0,0,1-2.753,1.689,3.317,3.317,0,0,1,.125-6.633,2.945,2.945,0,0,1,2.44,1.314Z" transform="translate(-115.73 -11.137)" fill="#fff"/>
                  <path id="Path_462" data-name="Path 462" d="M180.619,17.645h-1.251l-.688-1.627h-2.19l-.626,1.627H175.3l2.565-6.445h0Zm-3-4.38-.939,2.315h1.877Z" transform="translate(-119.361 -11.137)" fill="#fff"/>
                  <path id="Path_463" data-name="Path 463" d="M185.2,17.757V11.5h1.189v5.819h2.565v.5H185.2Z" transform="translate(-123.066 -11.25)" fill="#fff"/>
                  <path id="Path_464" data-name="Path 464" d="M192.7,17.757V11.5h1.189v6.257Z" transform="translate(-125.873 -11.25)" fill="#fff"/>
                  <path id="Path_465" data-name="Path 465" d="M197.4,17.757V11.5h3.629v.438h-2.44v2.44h2.253v.438h-2.253v3.066H197.4Z" transform="translate(-127.632 -11.25)" fill="#fff"/>
                  <path id="Path_466" data-name="Path 466" d="M207.229,11.1a3.145,3.145,0,0,1,3.129,3.316,3.134,3.134,0,1,1-6.257,0A3.182,3.182,0,0,1,207.229,11.1Zm0,6.257c1.5,0,1.877-1.689,1.877-2.941s-.313-2.878-1.877-2.878c-1.5,0-1.877,1.689-1.877,2.878C205.351,15.668,205.727,17.357,207.229,17.357Z" transform="translate(-130.14 -11.1)" fill="#fff"/>
                  <path id="Path_467" data-name="Path 467" d="M215.9,17.757V11.5h2.753a1.757,1.757,0,0,1,1.815,1.877c0,.939-.688,1.377-1.627,1.5l1.689,2.941h-1.314l-1.752-3.191h.063c1.064,0,1.752-.438,1.752-1.377,0-.688-.313-1.377-1.5-1.377h-.626V17.82H215.9Z" transform="translate(-134.557 -11.25)" fill="#fff"/>
                  <path id="Path_468" data-name="Path 468" d="M225,17.757V11.5h1.064l3.316,4.317h0V11.5h.5v6.257h-.5L225.5,12.751h0v5.006Z" transform="translate(-137.962 -11.25)" fill="#fff"/>
                  <path id="Path_469" data-name="Path 469" d="M235.5,17.757V11.5h1.189v6.257Z" transform="translate(-141.892 -11.25)" fill="#fff"/>
                  <path id="Path_470" data-name="Path 470" d="M244.419,17.645h-1.251l-.688-1.627h-2.19l-.626,1.627H239.1l2.566-6.445h0Zm-3-4.38-.939,2.315h1.877Z" transform="translate(-143.24 -11.137)" fill="#fff"/>
                </g>
              </g>
            </g>
            <g id="Group_2023" data-name="Group 2023" transform="translate(0 0)">
              <path id="Path_962" data-name="Path 962" d="M0,0H44.764V43.75H0Z" transform="translate(0.325 0)" fill="#fff"/>
              <g id="Group_150" data-name="Group 150" transform="translate(0.325 0)">
                <path id="Path_443" data-name="Path 443" d="M.5,27.34l18.722,1.594L5.536,19.116l15.752,5.61L6.117,5.983,25.291,20.646,19.545,5.409,29.1,18.351,28.26.5l6,17.914L38.719.5H.5V37.795h0l18.528-4.016Z" transform="translate(-0.5 -0.5)" fill="#ffd146"/>
              </g>
              <path id="Path_963" data-name="Path 963" d="M.5,37.788H38.684V.5h6.579V44.278H.5Z" transform="translate(-0.175 -0.5)" fill="#006a53"/>
              <g id="Rectangle_999" data-name="Rectangle 999" transform="translate(0 0)" fill="none" stroke="#fff" stroke-width="1">
                <rect width="45.467" height="44" stroke="none"/>
                <rect x="0.5" y="0.5" width="44.467" height="43" fill="none"/>
              </g>
            </g>
          </g>
        </g>
      </g>
    </g>
  </g>
</svg>
