<svg xmlns="http://www.w3.org/2000/svg" width="30" height="30" viewBox="0 0 40 40">
  <g id="Group_3307" data-name="Group 3307" transform="translate(-965 -762)">
    <rect id="Rectangle_1631" data-name="Rectangle 1631" width="40" height="40" rx="10" transform="translate(965 762)" fill="#fed141"/>
    <path id="paper-plane" d="M22.324.121.6,12.656a1.126,1.126,0,0,0,.1,2.025l4.983,2.091L19.151,4.9a.281.281,0,0,1,.4.389L8.26,19.051v3.774a1.125,1.125,0,0,0,1.992.741l2.977-3.624,5.841,2.447a1.128,1.128,0,0,0,1.547-.853L23.993,1.283A1.125,1.125,0,0,0,22.324.121Z" transform="translate(970.99 770.027)" fill="#fff"/>
  </g>
</svg>
