<svg xmlns="http://www.w3.org/2000/svg" width="12.25" height="14" viewBox="0 0 12.25 14">
  <path id="trash" d="M0,2.3V1.531A.655.655,0,0,1,.656.875H3.719L3.976.364A.649.649,0,0,1,4.561,0H7.686a.656.656,0,0,1,.588.364l.257.511h3.063a.655.655,0,0,1,.656.656V2.3a.329.329,0,0,1-.328.328H.328A.329.329,0,0,1,0,2.3Zm11.353,1.55L10.8,12.77A1.313,1.313,0,0,1,9.486,14H2.764a1.313,1.313,0,0,1-1.31-1.23L.9,3.847A.329.329,0,0,1,1.225,3.5h9.8a.328.328,0,0,1,.325.347Z" transform="translate(0 0)" fill="#555555"/>
</svg>
