<svg xmlns="http://www.w3.org/2000/svg" width="20" height="14" viewBox="0 0 17.615 18.695">
  <g id="Group_3380" data-name="Group 3380" transform="translate(-346.193 -162.652)">
    <g id="Group_3378" data-name="Group 3378" transform="translate(350.764 162.902)">
      <g id="Group_3371" data-name="Group 3371" transform="translate(0)">
        <path id="Path_1416" data-name="Path 1416" d="M141.025,0a4.236,4.236,0,1,0,4.236,4.237A4.241,4.241,0,0,0,141.025,0Zm0,7.748a3.512,3.512,0,1,1,3.512-3.512A3.516,3.516,0,0,1,141.025,7.748Z" transform="translate(-136.789)" fill="#fff" stroke="#fff" stroke-width="0.5"/>
      </g>
    </g>
    <g id="Group_3379" data-name="Group 3379" transform="translate(346.443 172.178)">
      <g id="Group_3373" data-name="Group 3373" transform="translate(0)">
        <path id="Path_1417" data-name="Path 1417" d="M29.807,263.506A8.558,8.558,0,0,0,15.2,269.557a.362.362,0,0,0,.362.362h16.39a.362.362,0,0,0,.362-.362A8.5,8.5,0,0,0,29.807,263.506ZM15.931,269.2a7.833,7.833,0,0,1,15.649,0Z" transform="translate(-15.198 -261)" fill="#fff" stroke="#fff" stroke-width="0.5"/>
      </g>
    </g>
  </g>
</svg>