<svg xmlns="http://www.w3.org/2000/svg" width="34" height="32" viewBox="0 0 48 42.403">
  <g id="g4593" transform="translate(179.357 -7.16)">
    <path id="path4595" d="M-155.246,7.16a.671.671,0,0,0-.136.016,3.036,3.036,0,0,0-2.612,1.5l-10.484,18.159L-178.962,45h0a3.076,3.076,0,0,0,2.635,4.566h41.937A3.077,3.077,0,0,0-131.753,45l-10.484-18.159L-152.722,8.679a3.036,3.036,0,0,0-2.341-1.493.671.671,0,0,0-.149-.026h-.033Z" transform="translate(0 0)"/>
    <path id="path4583" d="M-153.968,9.136a2.373,2.373,0,0,0-2.165,1.183l-10.474,18.139L-177.08,46.6a2.392,2.392,0,0,0,2.053,3.555h41.9a2.392,2.392,0,0,0,2.053-3.555l-10.474-18.139-10.474-18.139a2.372,2.372,0,0,0-1.94-1.183h0Z" transform="translate(-1.278 -1.282)" fill="#fff"/>
    <path id="path4577" d="M-152.731,11.117a1.7,1.7,0,0,0-1.551.847l-10.463,18.117L-175.208,48.2a1.7,1.7,0,0,0,1.471,2.547h41.852a1.7,1.7,0,0,0,1.471-2.547l-10.463-18.117L-151.34,11.964A1.7,1.7,0,0,0-152.731,11.117Z" transform="translate(-2.547 -2.57)"/>
    <path id="path4573" d="M-128.677,52.25h-41.729L-159.973,34.2l10.432-18.055L-139.109,34.2Z" transform="translate(-5.817 -5.835)" fill="#fc0"/>
    <g id="g858" transform="translate(-158.417 18.102)">
      <circle id="path846" cx="3.06" cy="3.06" r="3.06" transform="translate(0 20.593)"/>
      <path id="circle848" d="M72.16,42.557a3.06,3.06,0,0,0-3.06,3.059l1.1,13a1.965,1.965,0,0,0,3.93,0l1.095-13A3.06,3.06,0,0,0,72.16,42.557Z" transform="translate(-69.1 -42.557)"/>
    </g>
  </g>
</svg>
